<?xml version="1.0" encoding="UTF-8" standalone="no"?> <!-- Created with Vectornator for iOS (http://vectornator.io/) --><!DOCTYPE svg PUBLIC "-//W3C//DTD SVG 1.1//EN" "http://www.w3.org/Graphics/SVG/1.1/DTD/svg11.dtd">
<svg height="100%" style="fill-rule:evenodd;clip-rule:evenodd;stroke-linecap:round;stroke-linejoin:round;" xmlns:xlink="http://www.w3.org/1999/xlink" xmlns="http://www.w3.org/2000/svg" xml:space="preserve" width="100%" xmlns:vectornator="http://vectornator.io" version="1.1" viewBox="0 0 620 320">
<metadata>
<vectornator:setting key="DimensionsVisible" value="1"/>
<vectornator:setting key="Units" value="Pixels"/>
<vectornator:setting key="DynamicGuides" value="1"/>
<vectornator:setting key="SnapToPoints" value="1"/>
<vectornator:setting key="OutlineMode" value="0"/>
<vectornator:setting key="RulersVisible" value="1"/>
<vectornator:setting key="CMYKEnabledKey" value="0"/>
<vectornator:setting key="GuidesVisible" value="1"/>
<vectornator:setting key="SnapToEdges" value="1"/>
<vectornator:setting key="DisplayWhiteBackground" value="0"/>
<vectornator:setting key="SnapToGuides" value="1"/>
<vectornator:setting key="GridSpacing" value="50"/>
<vectornator:setting key="IsolateActiveLayer" value="0"/>
<vectornator:setting key="SnapToGrid" value="0"/>
<vectornator:setting key="New" value="1"/>
</metadata>
<defs/>
<g id="Spheres" vectornator:layerName="Spheres">
<path d="M0+150.58C0+67.7362+67.1573+0.577911+150+0.577911C232.843+0.577911+300+67.7362+300+150.58C300+233.424+232.843+300.582+150+300.582C67.1573+300.582+0+233.424+0+150.58Z" opacity="1" fill="#1697e4"/>
<path d="M125.327+149.7C125.327+135.893+136.52+124.7+150.327+124.7C164.134+124.7+175.327+135.893+175.327+149.7C175.327+163.507+164.134+174.7+150.327+174.7C136.52+174.7+125.327+163.507+125.327+149.7Z" opacity="1" fill="#ffffff"/>
<path d="M224.614+149.811C224.614+136.004+235.807+124.811+249.614+124.811C263.421+124.811+274.614+136.004+274.614+149.811C274.614+163.618+263.421+174.811+249.614+174.811C235.807+174.811+224.614+163.618+224.614+149.811Z" opacity="1" fill="#ffffff"/>
<path d="M25.754+150.055C25.754+136.248+36.9468+125.055+50.754+125.055C64.5611+125.055+75.754+136.248+75.754+150.055C75.754+163.863+64.5611+175.055+50.754+175.055C36.9468+175.055+25.754+163.863+25.754+150.055Z" opacity="1" fill="#ffffff"/>
<path d="M125.158+250.458C125.158+236.651+136.351+225.458+150.158+225.458C163.965+225.458+175.158+236.651+175.158+250.458C175.158+264.265+163.965+275.458+150.158+275.458C136.351+275.458+125.158+264.265+125.158+250.458Z" opacity="1" fill="#ffffff"/>
<path d="M125.165+50.8075C125.165+37.0004+136.358+25.8075+150.165+25.8075C163.972+25.8075+175.165+37.0004+175.165+50.8075C175.165+64.6146+163.972+75.8075+150.165+75.8075C136.358+75.8075+125.165+64.6146+125.165+50.8075Z" opacity="1" fill="#ffffff"/>
</g>
<g id="Connections" vectornator:layerName="Connections">
<path d="M154+173.57L153.935+226.06L146+226.05L146.065+173.56L154+173.57Z" opacity="1" fill="#ffffff"/>
<path d="M153.967+73.84L154+125.835L146.033+125.84L146+73.8451L153.967+73.84Z" opacity="1" fill="#ffffff"/>
<path d="M74.56+146.3L126.56+146.3L126.56+154.3L74.56+154.3L74.56+146.3Z" opacity="1" fill="#ffffff"/>
<path d="M174+145.99L226+145.99L226+153.99L174+153.99L174+145.99Z" opacity="1" fill="#ffffff"/>
</g>
<g id="Shepherd " vectornator:layerName="Shepherd ">
<g opacity="1">
<path d="M331.008+267.546C332.066+267.546+333.124+267.465+334.182+267.304C335.24+267.143+336.183+266.856+337.011+266.442C337.839+266.028+338.518+265.441+339.047+264.682C339.576+263.923+339.84+262.946+339.84+261.75C339.84+260.83+339.587+260.036+339.081+259.369C338.575+258.702+337.931+258.093+337.149+257.541C336.367+256.989+335.493+256.483+334.527+256.023C333.561+255.563+332.595+255.057+331.629+254.505C330.387+253.769+329.214+252.987+328.11+252.159C327.006+251.331+326.063+250.399+325.281+249.364C324.499+248.329+323.878+247.179+323.418+245.914C322.958+244.649+322.728+243.189+322.728+241.533C322.728+239.417+323.131+237.45+323.936+235.633C324.741+233.816+325.937+232.241+327.524+230.907C329.111+229.573+331.1+228.526+333.492+227.767C335.884+227.008+338.69+226.629+341.91+226.629C343.382+226.629+344.808+226.755+346.188+227.008C347.568+227.261+348.856+227.572+350.052+227.94C351.248+228.308+352.341+228.733+353.33+229.216C354.319+229.699+355.158+230.171+355.848+230.631L351.363+238.566C350.213+237.692+348.81+236.956+347.154+236.358C345.498+235.76+343.704+235.461+341.772+235.461C340.714+235.461+339.702+235.553+338.736+235.737C337.77+235.921+336.919+236.231+336.183+236.668C335.447+237.105+334.861+237.669+334.424+238.359C333.987+239.049+333.768+239.9+333.768+240.912C333.768+241.832+333.941+242.602+334.286+243.223C334.631+243.844+335.079+244.385+335.631+244.845C336.183+245.305+336.827+245.719+337.563+246.087C338.299+246.455+339.081+246.846+339.909+247.26C341.335+247.996+342.715+248.778+344.049+249.606C345.383+250.434+346.556+251.388+347.568+252.469C348.58+253.55+349.385+254.781+349.983+256.161C350.581+257.541+350.88+259.174+350.88+261.06C350.88+263.682+350.397+265.959+349.431+267.891C348.465+269.823+347.108+271.433+345.36+272.721C343.612+274.009+341.531+274.963+339.116+275.584C336.701+276.205+334.021+276.516+331.077+276.516C329.145+276.516+327.34+276.355+325.661+276.033C323.982+275.711+322.464+275.331+321.107+274.894C319.75+274.457+318.577+273.986+317.588+273.48C316.599+272.974+315.805+272.514+315.207+272.1L319.761+263.889C320.313+264.257+320.98+264.648+321.762+265.062C322.544+265.476+323.43+265.867+324.419+266.235C325.408+266.603+326.454+266.913+327.558+267.166C328.662+267.419+329.812+267.546+331.008+267.546Z" opacity="1" fill="#1697e4"/>
<path d="M380.343+238.635C382.321+238.635+384.023+238.922+385.449+239.497C386.875+240.072+388.048+240.877+388.968+241.912C389.888+242.947+390.578+244.178+391.038+245.604C391.498+247.03+391.728+248.571+391.728+250.227C391.728+252.159+391.498+254.068+391.038+255.954L386.346+275.55L376.065+275.55L380.619+256.368C380.803+255.586+380.976+254.758+381.137+253.884C381.298+253.01+381.378+252.182+381.378+251.4C381.378+250.204+381.068+249.18+380.447+248.329C379.826+247.478+378.641+247.053+376.893+247.053C376.157+247.053+375.456+247.099+374.789+247.191C374.122+247.283+373.466+247.398+372.822+247.536L366.129+275.55L355.848+275.55L368.268+223.662L378.963+222.006L374.754+239.325C375.674+239.141+376.606+238.98+377.549+238.842C378.492+238.704+379.423+238.635+380.343+238.635Z" opacity="1" fill="#1697e4"/>
<path d="M396.903+261.336C396.903+258.392+397.421+255.54+398.456+252.78C399.491+250.02+400.951+247.57+402.837+245.431C404.723+243.292+407.012+241.567+409.703+240.256C412.394+238.945+415.372+238.29+418.638+238.29C420.248+238.29+421.743+238.52+423.123+238.98C424.503+239.44+425.711+240.107+426.746+240.981C427.781+241.855+428.586+242.924+429.161+244.189C429.736+245.454+430.023+246.892+430.023+248.502C430.023+251.078+429.448+253.263+428.298+255.057C427.148+256.851+425.55+258.311+423.503+259.438C421.456+260.565+419.029+261.382+416.223+261.888C413.417+262.394+410.358+262.647+407.046+262.647C407.368+264.579+408.07+265.947+409.151+266.752C410.232+267.557+411.945+267.96+414.291+267.96C415.763+267.96+417.258+267.833+418.776+267.58C420.294+267.327+421.72+266.948+423.054+266.442L423.813+274.515C422.525+275.021+420.881+275.481+418.88+275.895C416.879+276.309+414.705+276.516+412.359+276.516C409.507+276.516+407.104+276.113+405.149+275.308C403.194+274.503+401.607+273.411+400.388+272.031C399.169+270.651+398.283+269.041+397.731+267.201C397.179+265.361+396.903+263.406+396.903+261.336ZM416.982+246.432C414.636+246.432+412.578+247.271+410.807+248.95C409.036+250.629+407.874+252.849+407.322+255.609C410.174+255.517+412.474+255.275+414.222+254.884C415.97+254.493+417.327+254.022+418.293+253.47C419.259+252.918+419.903+252.32+420.225+251.676C420.547+251.032+420.708+250.388+420.708+249.744C420.708+247.536+419.466+246.432+416.982+246.432Z" opacity="1" fill="#1697e4"/>
<path d="M443.478+267.546C444.26+267.73+445.226+267.822+446.376+267.822C448.17+267.822+449.803+267.488+451.275+266.821C452.747+266.154+454.001+265.223+455.036+264.027C456.071+262.831+456.876+261.393+457.451+259.714C458.026+258.035+458.313+256.184+458.313+254.16C458.313+252.182+457.876+250.503+457.002+249.123C456.128+247.743+454.61+247.053+452.448+247.053C450.976+247.053+449.596+247.191+448.308+247.467L443.478+267.546ZM468.525+253.401C468.525+256.759+467.973+259.829+466.869+262.612C465.765+265.395+464.236+267.799+462.281+269.823C460.326+271.847+457.98+273.422+455.243+274.549C452.506+275.676+449.527+276.24+446.307+276.24C444.743+276.24+443.179+276.102+441.615+275.826L438.51+288.315L428.298+288.315L439.752+240.567C441.592+240.015+443.697+239.52+446.066+239.083C448.435+238.646+450.999+238.428+453.759+238.428C456.335+238.428+458.555+238.819+460.418+239.601C462.281+240.383+463.81+241.452+465.006+242.809C466.202+244.166+467.088+245.753+467.663+247.57C468.238+249.387+468.525+251.331+468.525+253.401Z" opacity="1" fill="#1697e4"/>
<path d="M495.78+238.635C497.758+238.635+499.46+238.922+500.886+239.497C502.312+240.072+503.485+240.877+504.405+241.912C505.325+242.947+506.015+244.178+506.475+245.604C506.935+247.03+507.165+248.571+507.165+250.227C507.165+252.159+506.935+254.068+506.475+255.954L501.783+275.55L491.502+275.55L496.056+256.368C496.24+255.586+496.413+254.758+496.574+253.884C496.735+253.01+496.815+252.182+496.815+251.4C496.815+250.204+496.505+249.18+495.884+248.329C495.263+247.478+494.078+247.053+492.33+247.053C491.594+247.053+490.893+247.099+490.226+247.191C489.559+247.283+488.903+247.398+488.259+247.536L481.566+275.55L471.285+275.55L483.705+223.662L494.4+222.006L490.191+239.325C491.111+239.141+492.043+238.98+492.986+238.842C493.929+238.704+494.86+238.635+495.78+238.635Z" opacity="1" fill="#1697e4"/>
<path d="M512.34+261.336C512.34+258.392+512.858+255.54+513.893+252.78C514.928+250.02+516.388+247.57+518.274+245.431C520.16+243.292+522.449+241.567+525.14+240.256C527.831+238.945+530.809+238.29+534.075+238.29C535.685+238.29+537.18+238.52+538.56+238.98C539.94+239.44+541.148+240.107+542.183+240.981C543.218+241.855+544.023+242.924+544.598+244.189C545.173+245.454+545.46+246.892+545.46+248.502C545.46+251.078+544.885+253.263+543.735+255.057C542.585+256.851+540.987+258.311+538.94+259.438C536.893+260.565+534.466+261.382+531.66+261.888C528.854+262.394+525.795+262.647+522.483+262.647C522.805+264.579+523.507+265.947+524.588+266.752C525.669+267.557+527.382+267.96+529.728+267.96C531.2+267.96+532.695+267.833+534.213+267.58C535.731+267.327+537.157+266.948+538.491+266.442L539.25+274.515C537.962+275.021+536.318+275.481+534.317+275.895C532.316+276.309+530.142+276.516+527.796+276.516C524.944+276.516+522.541+276.113+520.586+275.308C518.631+274.503+517.044+273.411+515.825+272.031C514.606+270.651+513.72+269.041+513.168+267.201C512.616+265.361+512.34+263.406+512.34+261.336ZM532.419+246.432C530.073+246.432+528.015+247.271+526.244+248.95C524.473+250.629+523.311+252.849+522.759+255.609C525.611+255.517+527.911+255.275+529.659+254.884C531.407+254.493+532.764+254.022+533.73+253.47C534.696+252.918+535.34+252.32+535.662+251.676C535.984+251.032+536.145+250.388+536.145+249.744C536.145+247.536+534.903+246.432+532.419+246.432Z" opacity="1" fill="#1697e4"/>
<path d="M574.578+248.088C573.658+247.858+572.75+247.639+571.853+247.432C570.956+247.225+569.633+247.122+567.885+247.122C567.241+247.122+566.528+247.179+565.746+247.294C564.964+247.409+564.32+247.536+563.814+247.674L557.121+275.55L546.84+275.55L555.12+241.188C557.098+240.544+559.318+239.934+561.779+239.359C564.24+238.784+567.011+238.497+570.093+238.497C571.243+238.497+572.52+238.6+573.923+238.807C575.326+239.014+576.556+239.348+577.614+239.808L574.578+248.088Z" opacity="1" fill="#1697e4"/>
<path d="M591.207+276.516C588.907+276.516+586.941+276.125+585.308+275.343C583.675+274.561+582.341+273.491+581.306+272.134C580.271+270.777+579.512+269.19+579.029+267.373C578.546+265.556+578.304+263.613+578.304+261.543C578.304+258.415+578.868+255.459+579.995+252.676C581.122+249.893+582.674+247.467+584.652+245.397C586.63+243.327+588.976+241.694+591.69+240.498C594.404+239.302+597.371+238.704+600.591+238.704C601.419+238.704+602.19+238.75+602.903+238.842C603.616+238.934+604.34+239.072+605.076+239.256L608.802+223.662L619.497+222.006L610.389+259.887C609.745+262.509+609.561+265.142+609.837+267.787C610.113+270.432+610.642+272.79+611.424+274.86L602.247+276.171C601.971+275.619+601.718+275.09+601.488+274.584C601.258+274.078+601.028+273.503+600.798+272.859C599.51+273.917+598.073+274.791+596.486+275.481C594.899+276.171+593.139+276.516+591.207+276.516ZM603.075+247.467C602.799+247.421+602.558+247.375+602.351+247.329C602.144+247.283+601.937+247.248+601.73+247.225C601.523+247.202+601.258+247.191+600.936+247.191C600.614+247.191+600.2+247.191+599.694+247.191C598.084+247.191+596.589+247.57+595.209+248.329C593.829+249.088+592.645+250.112+591.656+251.4C590.667+252.688+589.896+254.148+589.344+255.781C588.792+257.414+588.516+259.082+588.516+260.784C588.516+262.992+588.896+264.728+589.655+265.993C590.414+267.258+591.782+267.891+593.76+267.891C594.818+267.891+595.784+267.684+596.658+267.27C597.532+266.856+598.452+266.166+599.418+265.2C599.51+264.05+599.66+262.842+599.867+261.577C600.074+260.312+600.292+259.151+600.522+258.093L603.075+247.467Z" opacity="1" fill="#1697e4"/>
</g>
</g>
<g id="Quality" vectornator:layerName="Quality">
<g opacity="1">
<path d="M315.559+186.557C315.559+182.463+316.168+178.852+317.387+175.724C318.606+172.596+320.262+169.986+322.355+167.893C324.448+165.8+326.886+164.224+329.669+163.166C332.452+162.108+335.408+161.579+338.536+161.579C341.618+161.579+344.527+162.108+347.264+163.166C350.001+164.224+352.405+165.8+354.475+167.893C356.545+169.986+358.189+172.596+359.408+175.724C360.627+178.852+361.237+182.463+361.237+186.557C361.237+190.145+360.777+193.342+359.857+196.148C358.937+198.954+357.66+201.381+356.027+203.428C354.394+205.475+352.485+207.131+350.3+208.396C348.115+209.661+345.781+210.523+343.297+210.983C343.343+212.041+343.814+212.973+344.711+213.778C345.608+214.583+346.747+215.261+348.127+215.813C349.507+216.365+351.048+216.825+352.75+217.193C354.452+217.561+356.154+217.837+357.856+218.021L356.269+223.265C353.877+222.943+351.588+222.518+349.403+221.989C347.218+221.46+345.24+220.758+343.469+219.884C341.698+219.01+340.215+217.895+339.019+216.538C337.823+215.181+337.018+213.49+336.604+211.466C333.706+211.282+330.969+210.604+328.393+209.431C325.817+208.258+323.586+206.625+321.7+204.532C319.814+202.439+318.319+199.897+317.215+196.907C316.111+193.917+315.559+190.467+315.559+186.557ZM322.597+186.557C322.597+189.455+322.965+192.089+323.701+194.458C324.437+196.827+325.483+198.839+326.84+200.495C328.197+202.151+329.853+203.428+331.808+204.325C333.763+205.222+335.96+205.67+338.398+205.67C340.836+205.67+343.021+205.222+344.953+204.325C346.885+203.428+348.529+202.151+349.886+200.495C351.243+198.839+352.29+196.827+353.026+194.458C353.762+192.089+354.13+189.455+354.13+186.557C354.13+183.659+353.762+181.026+353.026+178.657C352.29+176.288+351.243+174.275+349.886+172.619C348.529+170.963+346.885+169.687+344.953+168.79C343.021+167.893+340.836+167.444+338.398+167.444C335.96+167.444+333.763+167.893+331.808+168.79C329.853+169.687+328.197+170.963+326.84+172.619C325.483+174.275+324.437+176.288+323.701+178.657C322.965+181.026+322.597+183.659+322.597+186.557Z" opacity="1" fill="#1697e4"/>
<path d="M399.325+209.465C397.853+209.833+395.909+210.224+393.494+210.638C391.079+211.052+388.285+211.259+385.111+211.259C382.351+211.259+380.028+210.857+378.142+210.052C376.256+209.247+374.738+208.108+373.588+206.636C372.438+205.164+371.61+203.428+371.104+201.427C370.598+199.426+370.345+197.206+370.345+194.768L370.345+174.62L376.762+174.62L376.762+193.388C376.762+197.758+377.452+200.886+378.832+202.772C380.212+204.658+382.535+205.601+385.801+205.601C386.491+205.601+387.204+205.578+387.94+205.532C388.676+205.486+389.366+205.429+390.01+205.36C390.654+205.291+391.24+205.222+391.769+205.153C392.298+205.084+392.678+205.003+392.908+204.911L392.908+174.62L399.325+174.62L399.325+209.465Z" opacity="1" fill="#1697e4"/>
<path d="M422.509+205.877C424.027+205.877+425.372+205.843+426.545+205.774C427.718+205.705+428.696+205.578+429.478+205.394L429.478+194.699C429.018+194.469+428.27+194.274+427.235+194.113C426.2+193.952+424.947+193.871+423.475+193.871C422.509+193.871+421.485+193.94+420.404+194.078C419.323+194.216+418.334+194.504+417.437+194.941C416.54+195.378+415.793+195.976+415.195+196.735C414.597+197.494+414.298+198.494+414.298+199.736C414.298+202.036+415.034+203.635+416.506+204.532C417.978+205.429+419.979+205.877+422.509+205.877ZM421.957+173.723C424.533+173.723+426.706+174.057+428.477+174.724C430.248+175.391+431.674+176.334+432.755+177.553C433.836+178.772+434.607+180.221+435.067+181.9C435.527+183.579+435.757+185.43+435.757+187.454L435.757+209.879C435.205+209.971+434.434+210.098+433.445+210.259C432.456+210.42+431.341+210.569+430.099+210.707C428.857+210.845+427.511+210.972+426.062+211.087C424.613+211.202+423.176+211.259+421.75+211.259C419.726+211.259+417.863+211.052+416.161+210.638C414.459+210.224+412.987+209.569+411.745+208.672C410.503+207.775+409.537+206.59+408.847+205.118C408.157+203.646+407.812+201.875+407.812+199.805C407.812+197.827+408.214+196.125+409.019+194.699C409.824+193.273+410.917+192.123+412.297+191.249C413.677+190.375+415.287+189.731+417.127+189.317C418.967+188.903+420.899+188.696+422.923+188.696C423.567+188.696+424.234+188.731+424.924+188.8C425.614+188.869+426.269+188.961+426.89+189.076C427.511+189.191+428.052+189.294+428.512+189.386C428.972+189.478+429.294+189.547+429.478+189.593L429.478+187.799C429.478+186.741+429.363+185.695+429.133+184.66C428.903+183.625+428.489+182.705+427.891+181.9C427.293+181.095+426.476+180.451+425.441+179.968C424.406+179.485+423.061+179.243+421.405+179.243C419.289+179.243+417.437+179.393+415.85+179.692C414.263+179.991+413.079+180.301+412.297+180.623L411.538+175.31C412.366+174.942+413.746+174.586+415.678+174.241C417.61+173.896+419.703+173.723+421.957+173.723Z" opacity="1" fill="#1697e4"/>
<path d="M457.147+211.19C453.191+211.098+450.385+210.247+448.729+208.637C447.073+207.027+446.245+204.52+446.245+201.116L446.245+158.06L452.662+156.956L452.662+200.081C452.662+201.139+452.754+202.013+452.938+202.703C453.122+203.393+453.421+203.945+453.835+204.359C454.249+204.773+454.801+205.084+455.491+205.291C456.181+205.498+457.032+205.67+458.044+205.808L457.147+211.19Z" opacity="1" fill="#1697e4"/>
<path d="M471.637+210.5L465.22+210.5L465.22+174.62L471.637+174.62L471.637+210.5ZM468.394+168.134C467.244+168.134+466.266+167.755+465.461+166.996C464.656+166.237+464.254+165.213+464.254+163.925C464.254+162.637+464.656+161.614+465.461+160.855C466.266+160.096+467.244+159.716+468.394+159.716C469.544+159.716+470.521+160.096+471.326+160.855C472.131+161.614+472.534+162.637+472.534+163.925C472.534+165.213+472.131+166.237+471.326+166.996C470.521+167.755+469.544+168.134+468.394+168.134Z" opacity="1" fill="#1697e4"/>
<path d="M488.68+174.62L502.273+174.62L502.273+180.002L488.68+180.002L488.68+196.562C488.68+198.356+488.818+199.84+489.094+201.013C489.37+202.186+489.784+203.106+490.336+203.773C490.888+204.44+491.578+204.911+492.406+205.187C493.234+205.463+494.2+205.601+495.304+205.601C497.236+205.601+498.788+205.383+499.961+204.946C501.134+204.509+501.951+204.198+502.411+204.014L503.653+209.327C503.009+209.649+501.882+210.052+500.272+210.535C498.662+211.018+496.822+211.259+494.752+211.259C492.314+211.259+490.301+210.949+488.714+210.328C487.127+209.707+485.851+208.775+484.885+207.533C483.919+206.291+483.24+204.762+482.849+202.945C482.458+201.128+482.263+199.023+482.263+196.631L482.263+164.615L488.68+163.511L488.68+174.62Z" opacity="1" fill="#1697e4"/>
<path d="M506.206+217.193C506.712+217.423+507.367+217.642+508.172+217.849C508.977+218.056+509.771+218.159+510.553+218.159C513.083+218.159+515.061+217.596+516.487+216.469C517.913+215.342+519.201+213.513+520.351+210.983C517.453+205.463+514.75+199.61+512.243+193.423C509.736+187.236+507.655+180.968+505.999+174.62L512.899+174.62C513.405+176.69+514.014+178.921+514.727+181.313C515.44+183.705+516.234+186.166+517.108+188.696C517.982+191.226+518.925+193.756+519.937+196.286C520.949+198.816+522.007+201.254+523.111+203.6C524.859+198.77+526.377+193.986+527.665+189.248C528.953+184.51+530.172+179.634+531.322+174.62L537.946+174.62C536.29+181.382+534.45+187.88+532.426+194.113C530.402+200.346+528.217+206.176+525.871+211.604C524.951+213.674+523.996+215.457+523.007+216.952C522.018+218.447+520.926+219.677+519.73+220.643C518.534+221.609+517.188+222.322+515.693+222.782C514.198+223.242+512.508+223.472+510.622+223.472C510.116+223.472+509.587+223.438+509.035+223.369C508.483+223.3+507.942+223.208+507.413+223.093C506.884+222.978+506.401+222.851+505.964+222.713C505.527+222.575+505.217+222.46+505.033+222.368L506.206+217.193Z" opacity="1" fill="#1697e4"/>
</g>
</g>
</svg>
